<svg viewBox="0 0 40 40" fill="none" xmlns="http://www.w3.org/2000/svg">
  <!-- Building body -->
  <rect x="8" y="12" width="24" height="22" rx="2" fill="#0D7C66" />
  <!-- Windows -->
  <rect x="12" y="16" width="4" height="4" rx="0.5" fill="#FBF8F2" />
  <rect x="18" y="16" width="4" height="4" rx="0.5" fill="#FBF8F2" />
  <rect x="24" y="16" width="4" height="4" rx="0.5" fill="#FBF8F2" />
  <rect x="12" y="23" width="4" height="4" rx="0.5" fill="#FBF8F2" />
  <rect x="24" y="23" width="4" height="4" rx="0.5" fill="#FBF8F2" />
  <!-- Door -->
  <rect x="17" y="27" width="6" height="7" rx="1" fill="#D4A853" />
  <!-- Echo waves emanating from top-right -->
  <path
    d="M34 8C34 8 36 10 36 12C36 14 34 16 34 16"
    stroke="#D4A853"
    stroke-width="1.8"
    stroke-linecap="round"
    fill="none"
  />
  <path
    d="M37 5C37 5 40 8.5 40 12C40 15.5 37 19 37 19"
    stroke="#D4A853"
    stroke-width="1.5"
    stroke-linecap="round"
    fill="none"
    opacity="0.6"
  />
</svg>
